<svg width="32" height="23" viewBox="0 0 32 23" fill="none" xmlns="http://www.w3.org/2000/svg">
<path d="M30.9512 3.72046C30.7742 3.05684 30.4251 2.45117 29.939 1.96408C29.4529 1.477 28.8467 1.1256 28.1813 0.945072C25.7383 0.28888 15.9409 0.288879 15.9409 0.288879C15.9409 0.288879 6.14356 0.28888 3.70057 0.945072C3.03511 1.1256 2.42898 1.477 1.94285 1.96408C1.45673 2.45117 1.10768 3.05684 0.930643 3.72046C0.478926 6.21373 0.259686 8.74323 0.275722 11.2767C0.259686 13.8101 0.478926 16.3396 0.930643 18.8329C1.10882 19.4913 1.45899 20.0909 1.94553 20.5708C2.43207 21.0507 3.03761 21.3938 3.70057 21.5651C6.14356 22.2213 15.9409 22.2213 15.9409 22.2213C15.9409 22.2213 25.7383 22.2213 28.1813 21.5651C28.8441 21.3939 29.4495 21.051 29.9361 20.5713C30.4226 20.0916 30.7728 19.4921 30.9512 18.834C31.4029 16.3407 31.6221 13.8112 31.6061 11.2777C31.6221 8.74429 31.4029 6.21478 30.9512 3.72151V3.72046ZM12.7361 15.9132V6.6391L20.9242 11.2735L12.7361 15.9079V15.9132Z" fill="#E1E1E1"/>
</svg>
